<svg width="511" height="537" viewBox="0 0 511 537" fill="none" xmlns="http://www.w3.org/2000/svg">
<rect x="18.5" y="44.5" width="485" height="485" rx="42.5" fill="#AC99FF" stroke="#5534DA" stroke-width="15"/>
<path d="M61 44.5H461C484.472 44.5 503.5 63.5279 503.5 87V437C503.5 460.472 484.472 479.5 461 479.5H61C37.5279 479.5 18.5 460.472 18.5 437V87C18.5 63.5279 37.5279 44.5 61 44.5Z" fill="white" stroke="#5534DA" stroke-width="15"/>
<line x1="10.9955" y1="157" x2="510.995" y2="157" stroke="#5534DA" stroke-width="15"/>
<path d="M48.9457 226.95V214.273H108.676V226.95H86.4102V287H71.2113V226.95H48.9457ZM126.36 288.03C122.88 288.03 119.779 287.426 117.056 286.219C114.334 284.988 112.18 283.177 110.593 280.786C109.031 278.371 108.25 275.364 108.25 271.766C108.25 268.735 108.806 266.19 109.919 264.131C111.031 262.071 112.547 260.414 114.464 259.159C116.382 257.904 118.56 256.957 120.998 256.318C123.46 255.679 126.041 255.229 128.74 254.969C131.912 254.637 134.469 254.33 136.41 254.045C138.351 253.738 139.76 253.288 140.636 252.696C141.512 252.104 141.95 251.228 141.95 250.068V249.855C141.95 247.606 141.24 245.866 139.819 244.635C138.422 243.404 136.434 242.788 133.853 242.788C131.131 242.788 128.965 243.392 127.355 244.599C125.745 245.783 124.68 247.275 124.159 249.074L110.167 247.938C110.877 244.623 112.274 241.759 114.358 239.344C116.441 236.905 119.128 235.035 122.419 233.733C125.733 232.407 129.568 231.744 133.924 231.744C136.955 231.744 139.855 232.099 142.625 232.81C145.418 233.52 147.892 234.621 150.047 236.112C152.225 237.604 153.941 239.521 155.196 241.865C156.45 244.185 157.078 246.967 157.078 250.21V287H142.731V279.436H142.305C141.429 281.141 140.257 282.644 138.789 283.946C137.322 285.224 135.558 286.231 133.498 286.964C131.439 287.675 129.059 288.03 126.36 288.03ZM130.693 277.589C132.918 277.589 134.883 277.152 136.588 276.276C138.292 275.376 139.63 274.169 140.6 272.653C141.571 271.138 142.056 269.422 142.056 267.504V261.716C141.583 262.024 140.932 262.308 140.103 262.568C139.298 262.805 138.387 263.03 137.369 263.243C136.351 263.432 135.333 263.61 134.315 263.776C133.297 263.918 132.374 264.048 131.545 264.166C129.77 264.427 128.219 264.841 126.893 265.409C125.567 265.977 124.538 266.747 123.804 267.717C123.07 268.664 122.703 269.848 122.703 271.268C122.703 273.328 123.449 274.902 124.94 275.991C126.455 277.057 128.373 277.589 130.693 277.589ZM214.198 248.009L200.348 248.861C200.112 247.677 199.603 246.612 198.821 245.665C198.04 244.694 197.01 243.925 195.732 243.357C194.477 242.765 192.974 242.469 191.222 242.469C188.878 242.469 186.901 242.966 185.292 243.96C183.682 244.931 182.877 246.233 182.877 247.866C182.877 249.169 183.398 250.269 184.439 251.169C185.481 252.069 187.268 252.791 189.801 253.335L199.674 255.324C204.977 256.413 208.93 258.165 211.534 260.58C214.139 262.994 215.441 266.167 215.441 270.097C215.441 273.671 214.387 276.808 212.28 279.507C210.197 282.206 207.332 284.313 203.686 285.828C200.064 287.32 195.886 288.065 191.151 288.065C183.93 288.065 178.177 286.562 173.892 283.555C169.631 280.525 167.133 276.406 166.4 271.197L181.279 270.416C181.729 272.618 182.818 274.299 184.546 275.459C186.274 276.595 188.488 277.163 191.186 277.163C193.838 277.163 195.969 276.654 197.578 275.636C199.212 274.595 200.041 273.257 200.064 271.624C200.041 270.25 199.461 269.126 198.324 268.25C197.188 267.35 195.436 266.664 193.069 266.19L183.623 264.308C178.296 263.243 174.33 261.396 171.726 258.768C169.146 256.141 167.855 252.791 167.855 248.719C167.855 245.215 168.802 242.196 170.696 239.663C172.614 237.13 175.301 235.177 178.757 233.804C182.238 232.431 186.31 231.744 190.973 231.744C197.863 231.744 203.284 233.2 207.238 236.112C211.215 239.024 213.535 242.99 214.198 248.009ZM238.674 271.304L238.71 253.158H240.911L258.383 232.455H275.748L252.275 259.869H248.688L238.674 271.304ZM224.967 287V214.273H240.094V287H224.967ZM259.058 287L243.006 263.243L253.092 252.554L276.778 287H259.058ZM293.388 307.455C291.471 307.455 289.671 307.301 287.99 306.993C286.333 306.709 284.96 306.342 283.871 305.892L287.28 294.599C289.056 295.144 290.654 295.44 292.074 295.487C293.518 295.535 294.761 295.203 295.803 294.493C296.868 293.783 297.732 292.575 298.395 290.871L299.283 288.562L279.716 232.455H295.625L306.918 272.511H307.486L318.885 232.455H334.901L313.701 292.895C312.683 295.83 311.298 298.387 309.546 300.565C307.818 302.767 305.628 304.46 302.976 305.643C300.325 306.851 297.129 307.455 293.388 307.455ZM83.6625 347.95V335.273H143.393V347.95H121.127V408H105.928V347.95H83.6625ZM161.077 409.03C157.597 409.03 154.496 408.426 151.773 407.219C149.051 405.988 146.896 404.177 145.31 401.786C143.748 399.371 142.966 396.364 142.966 392.766C142.966 389.735 143.523 387.19 144.635 385.131C145.748 383.071 147.263 381.414 149.181 380.159C151.099 378.904 153.277 377.957 155.715 377.318C158.177 376.679 160.758 376.229 163.456 375.969C166.629 375.637 169.186 375.33 171.127 375.045C173.068 374.738 174.477 374.288 175.353 373.696C176.229 373.104 176.667 372.228 176.667 371.068V370.855C176.667 368.606 175.956 366.866 174.536 365.635C173.139 364.404 171.151 363.788 168.57 363.788C165.848 363.788 163.681 364.392 162.072 365.599C160.462 366.783 159.396 368.275 158.876 370.074L144.884 368.938C145.594 365.623 146.991 362.759 149.074 360.344C151.158 357.905 153.845 356.035 157.135 354.733C160.45 353.407 164.285 352.744 168.641 352.744C171.671 352.744 174.572 353.099 177.341 353.81C180.135 354.52 182.609 355.621 184.763 357.112C186.941 358.604 188.658 360.521 189.912 362.865C191.167 365.185 191.795 367.967 191.795 371.21V408H177.448V400.436H177.022C176.146 402.141 174.974 403.644 173.506 404.946C172.038 406.224 170.275 407.231 168.215 407.964C166.155 408.675 163.776 409.03 161.077 409.03ZM165.41 398.589C167.635 398.589 169.6 398.152 171.305 397.276C173.009 396.376 174.347 395.169 175.317 393.653C176.288 392.138 176.773 390.422 176.773 388.504V382.716C176.3 383.024 175.649 383.308 174.82 383.568C174.015 383.805 173.104 384.03 172.086 384.243C171.068 384.432 170.05 384.61 169.032 384.776C168.014 384.918 167.09 385.048 166.262 385.166C164.486 385.427 162.936 385.841 161.61 386.409C160.284 386.977 159.254 387.747 158.52 388.717C157.787 389.664 157.42 390.848 157.42 392.268C157.42 394.328 158.165 395.902 159.657 396.991C161.172 398.057 163.09 398.589 165.41 398.589ZM248.915 369.009L235.065 369.861C234.828 368.677 234.319 367.612 233.538 366.665C232.757 365.694 231.727 364.925 230.449 364.357C229.194 363.765 227.691 363.469 225.939 363.469C223.595 363.469 221.618 363.966 220.008 364.96C218.398 365.931 217.594 367.233 217.594 368.866C217.594 370.169 218.114 371.269 219.156 372.169C220.198 373.069 221.985 373.791 224.518 374.335L234.39 376.324C239.693 377.413 243.647 379.165 246.251 381.58C248.855 383.994 250.157 387.167 250.157 391.097C250.157 394.671 249.104 397.808 246.997 400.507C244.914 403.206 242.049 405.313 238.403 406.828C234.781 408.32 230.603 409.065 225.868 409.065C218.647 409.065 212.894 407.562 208.609 404.555C204.348 401.525 201.85 397.406 201.116 392.197L215.996 391.416C216.445 393.618 217.534 395.299 219.263 396.459C220.991 397.595 223.204 398.163 225.903 398.163C228.555 398.163 230.685 397.654 232.295 396.636C233.929 395.595 234.757 394.257 234.781 392.624C234.757 391.25 234.177 390.126 233.041 389.25C231.905 388.35 230.153 387.664 227.785 387.19L218.339 385.308C213.013 384.243 209.047 382.396 206.443 379.768C203.863 377.141 202.572 373.791 202.572 369.719C202.572 366.215 203.519 363.196 205.413 360.663C207.331 358.13 210.018 356.177 213.474 354.804C216.954 353.431 221.026 352.744 225.69 352.744C232.579 352.744 238.001 354.2 241.954 357.112C245.932 360.024 248.252 363.99 248.915 369.009ZM273.391 392.304L273.426 374.158H275.628L293.1 353.455H310.465L286.992 380.869H283.405L273.391 392.304ZM259.683 408V335.273H274.811V408H259.683ZM293.774 408L277.723 384.243L287.808 373.554L311.494 408H293.774ZM328.105 428.455C326.187 428.455 324.388 428.301 322.707 427.993C321.05 427.709 319.677 427.342 318.588 426.892L321.997 415.599C323.773 416.144 325.371 416.44 326.791 416.487C328.235 416.535 329.478 416.203 330.52 415.493C331.585 414.783 332.449 413.575 333.112 411.871L334 409.562L314.433 353.455H330.342L341.635 393.511H342.203L353.602 353.455H369.618L348.417 413.895C347.399 416.83 346.015 419.387 344.263 421.565C342.534 423.767 340.345 425.46 337.693 426.643C335.041 427.851 331.845 428.455 328.105 428.455Z" fill="#5534DA"/>
<path d="M26 52C209.937 52 313.063 52 497 52C497 90.2714 497 111.729 497 150H26V105.24V52Z" fill="#AC99FF"/>
<path d="M61 44.5H461C484.472 44.5 503.5 63.5279 503.5 87V437C503.5 460.472 484.472 479.5 461 479.5H61C37.5279 479.5 18.5 460.472 18.5 437V87C18.5 63.5279 37.5279 44.5 61 44.5Z" stroke="#5534DA" stroke-width="15"/>
<rect x="81" y="5" width="25" height="84" rx="12.5" fill="#D9D9D9" stroke="#5534DA" stroke-width="10"/>
<rect x="249" y="5" width="25" height="84" rx="12.5" fill="#D9D9D9" stroke="#5534DA" stroke-width="10"/>
<rect x="165" y="5" width="25" height="84" rx="12.5" fill="#D9D9D9" stroke="#5534DA" stroke-width="10"/>
<rect x="333" y="5" width="25" height="84" rx="12.5" fill="#D9D9D9" stroke="#5534DA" stroke-width="10"/>
<rect x="417" y="5" width="25" height="84" rx="12.5" fill="#D9D9D9" stroke="#5534DA" stroke-width="10"/>
<path d="M394.117 440.939L392.331 379.19C392.122 371.953 399.761 367.151 406.191 370.477L463.616 400.176C471.52 404.264 469.97 416.001 461.276 417.896L436.939 423.202C431.51 424.386 426.645 427.379 423.142 431.692L410.986 446.654C405.433 453.491 394.372 449.743 394.117 440.939Z" fill="#DAD1FF" stroke="#5534DA" stroke-width="15"/>
</svg>
