<svg width="1359" height="537" viewBox="0 0 1359 537" fill="none" xmlns="http://www.w3.org/2000/svg">
<path d="M627.391 120.901V95.5455H746.852V120.901H702.32V241H671.923V120.901H627.391ZM782.221 243.06C775.261 243.06 769.058 241.852 763.613 239.438C758.168 236.975 753.859 233.353 750.687 228.571C747.562 223.741 745.999 217.728 745.999 210.531C745.999 204.471 747.112 199.381 749.337 195.261C751.563 191.142 754.593 187.828 758.428 185.318C762.263 182.809 766.62 180.915 771.496 179.636C776.421 178.358 781.582 177.458 786.979 176.938C793.324 176.275 798.438 175.659 802.32 175.091C806.203 174.475 809.02 173.576 810.772 172.392C812.524 171.208 813.4 169.456 813.4 167.136V166.71C813.4 162.212 811.979 158.732 809.138 156.27C806.345 153.808 802.368 152.577 797.207 152.577C791.762 152.577 787.429 153.784 784.21 156.199C780.99 158.566 778.859 161.549 777.817 165.148L749.835 162.875C751.255 156.246 754.049 150.517 758.215 145.688C762.382 140.811 767.756 137.07 774.337 134.466C780.966 131.814 788.637 130.489 797.349 130.489C803.409 130.489 809.21 131.199 814.749 132.619C820.336 134.04 825.284 136.241 829.593 139.224C833.949 142.207 837.382 146.043 839.891 150.73C842.401 155.37 843.656 160.934 843.656 167.42V241H814.962V225.872H814.11C812.358 229.281 810.014 232.288 807.079 234.892C804.143 237.449 800.616 239.461 796.496 240.929C792.377 242.349 787.619 243.06 782.221 243.06ZM790.886 222.179C795.336 222.179 799.266 221.303 802.675 219.551C806.085 217.752 808.76 215.337 810.701 212.307C812.642 209.277 813.613 205.844 813.613 202.009V190.432C812.666 191.047 811.364 191.616 809.707 192.136C808.097 192.61 806.274 193.06 804.238 193.486C802.202 193.865 800.166 194.22 798.13 194.551C796.094 194.835 794.247 195.096 792.59 195.332C789.039 195.853 785.938 196.682 783.286 197.818C780.635 198.955 778.575 200.493 777.107 202.435C775.639 204.329 774.906 206.696 774.906 209.537C774.906 213.656 776.397 216.805 779.38 218.983C782.41 221.114 786.246 222.179 790.886 222.179ZM957.896 163.017L930.197 164.722C929.723 162.354 928.705 160.223 927.143 158.33C925.58 156.388 923.521 154.849 920.964 153.713C918.454 152.529 915.448 151.938 911.944 151.938C907.256 151.938 903.303 152.932 900.083 154.92C896.863 156.862 895.254 159.466 895.254 162.733C895.254 165.337 896.295 167.539 898.379 169.338C900.462 171.137 904.037 172.581 909.103 173.67L928.847 177.648C939.453 179.826 947.361 183.33 952.569 188.159C957.777 192.989 960.381 199.333 960.381 207.193C960.381 214.343 958.274 220.616 954.06 226.014C949.894 231.412 944.165 235.626 936.873 238.656C929.629 241.639 921.272 243.131 911.802 243.131C897.361 243.131 885.855 240.124 877.285 234.111C868.762 228.05 863.767 219.812 862.299 209.395L892.058 207.832C892.957 212.236 895.135 215.598 898.592 217.918C902.048 220.19 906.475 221.327 911.873 221.327C917.176 221.327 921.437 220.309 924.657 218.273C927.924 216.189 929.581 213.514 929.629 210.247C929.581 207.501 928.421 205.252 926.148 203.5C923.876 201.701 920.372 200.328 915.637 199.381L896.745 195.616C886.092 193.486 878.161 189.793 872.952 184.537C867.791 179.281 865.211 172.581 865.211 164.438C865.211 157.43 867.105 151.393 870.893 146.327C874.728 141.26 880.102 137.354 887.015 134.608C893.975 131.862 902.119 130.489 911.447 130.489C925.225 130.489 936.068 133.401 943.975 139.224C951.93 145.048 956.57 152.979 957.896 163.017ZM1006.85 209.608L1006.92 173.315H1011.32L1046.27 131.909H1081L1034.05 186.739H1026.88L1006.85 209.608ZM979.433 241V95.5455H1009.69V241H979.433ZM1047.62 241L1015.51 193.486L1035.68 172.108L1083.06 241H1047.62ZM1116.28 281.909C1112.44 281.909 1108.84 281.601 1105.48 280.986C1102.17 280.418 1099.42 279.684 1097.24 278.784L1104.06 256.199C1107.61 257.288 1110.81 257.88 1113.65 257.974C1116.54 258.069 1119.02 257.406 1121.11 255.986C1123.24 254.565 1124.96 252.151 1126.29 248.741L1128.07 244.125L1088.93 131.909H1120.75L1143.34 212.023H1144.47L1167.27 131.909H1199.3L1156.9 252.79C1154.87 258.661 1152.1 263.775 1148.59 268.131C1145.14 272.534 1140.76 275.92 1135.45 278.287C1130.15 280.702 1123.76 281.909 1116.28 281.909ZM719.969 362.901V337.545H839.43V362.901H794.898V483H764.501V362.901H719.969ZM874.799 485.06C867.839 485.06 861.636 483.852 856.191 481.438C850.746 478.975 846.437 475.353 843.265 470.571C840.14 465.741 838.577 459.728 838.577 452.531C838.577 446.471 839.69 441.381 841.915 437.261C844.141 433.142 847.171 429.828 851.006 427.318C854.842 424.809 859.198 422.915 864.075 421.636C868.999 420.358 874.16 419.458 879.558 418.938C885.902 418.275 891.016 417.659 894.898 417.091C898.781 416.475 901.598 415.576 903.35 414.392C905.102 413.208 905.978 411.456 905.978 409.136V408.71C905.978 404.212 904.558 400.732 901.717 398.27C898.923 395.808 894.946 394.577 889.785 394.577C884.34 394.577 880.007 395.784 876.788 398.199C873.568 400.566 871.437 403.549 870.396 407.148L842.413 404.875C843.833 398.246 846.627 392.517 850.793 387.688C854.96 382.811 860.334 379.07 866.915 376.466C873.544 373.814 881.215 372.489 889.927 372.489C895.987 372.489 901.788 373.199 907.327 374.619C912.915 376.04 917.862 378.241 922.171 381.224C926.527 384.207 929.96 388.043 932.469 392.73C934.979 397.37 936.234 402.934 936.234 409.42V483H907.54V467.872H906.688C904.936 471.281 902.593 474.288 899.657 476.892C896.721 479.449 893.194 481.461 889.075 482.929C884.955 484.349 880.197 485.06 874.799 485.06ZM883.464 464.179C887.915 464.179 891.844 463.303 895.254 461.551C898.663 459.752 901.338 457.337 903.279 454.307C905.22 451.277 906.191 447.844 906.191 444.009V432.432C905.244 433.047 903.942 433.616 902.285 434.136C900.675 434.61 898.852 435.06 896.816 435.486C894.78 435.865 892.744 436.22 890.708 436.551C888.672 436.835 886.826 437.096 885.168 437.332C881.617 437.853 878.516 438.682 875.864 439.818C873.213 440.955 871.153 442.493 869.685 444.435C868.218 446.329 867.484 448.696 867.484 451.537C867.484 455.656 868.975 458.805 871.958 460.983C874.988 463.114 878.824 464.179 883.464 464.179ZM1050.47 405.017L1022.77 406.722C1022.3 404.354 1021.28 402.223 1019.72 400.33C1018.16 398.388 1016.1 396.849 1013.54 395.713C1011.03 394.529 1008.03 393.938 1004.52 393.938C999.835 393.938 995.881 394.932 992.661 396.92C989.442 398.862 987.832 401.466 987.832 404.733C987.832 407.337 988.873 409.539 990.957 411.338C993.04 413.137 996.615 414.581 1001.68 415.67L1021.43 419.648C1032.03 421.826 1039.94 425.33 1045.15 430.159C1050.36 434.989 1052.96 441.333 1052.96 449.193C1052.96 456.343 1050.85 462.616 1046.64 468.014C1042.47 473.412 1036.74 477.626 1029.45 480.656C1022.21 483.639 1013.85 485.131 1004.38 485.131C989.939 485.131 978.433 482.124 969.863 476.111C961.34 470.05 956.345 461.812 954.877 451.395L984.636 449.832C985.535 454.236 987.713 457.598 991.17 459.918C994.626 462.19 999.053 463.327 1004.45 463.327C1009.75 463.327 1014.02 462.309 1017.24 460.273C1020.5 458.189 1022.16 455.514 1022.21 452.247C1022.16 449.501 1021 447.252 1018.73 445.5C1016.45 443.701 1012.95 442.328 1008.22 441.381L989.323 437.616C978.67 435.486 970.739 431.793 965.531 426.537C960.37 421.281 957.789 414.581 957.789 406.438C957.789 399.43 959.683 393.393 963.471 388.327C967.306 383.26 972.68 379.354 979.593 376.608C986.553 373.862 994.697 372.489 1004.02 372.489C1017.8 372.489 1028.65 375.401 1036.55 381.224C1044.51 387.048 1049.15 394.979 1050.47 405.017ZM1099.43 451.608L1099.5 415.315H1103.9L1138.84 373.909H1173.57L1126.63 428.739H1119.45L1099.43 451.608ZM1072.01 483V337.545H1102.27V483H1072.01ZM1140.19 483L1108.09 435.486L1128.26 414.108L1175.63 483H1140.19ZM1208.85 523.909C1205.02 523.909 1201.42 523.601 1198.06 522.986C1194.74 522.418 1192 521.684 1189.82 520.784L1196.64 498.199C1200.19 499.288 1203.39 499.88 1206.23 499.974C1209.11 500.069 1211.6 499.406 1213.68 497.986C1215.81 496.565 1217.54 494.151 1218.87 490.741L1220.64 486.125L1181.51 373.909H1213.33L1235.91 454.023H1237.05L1259.85 373.909H1291.88L1249.48 494.79C1247.44 500.661 1244.67 505.775 1241.17 510.131C1237.71 514.534 1233.33 517.92 1228.03 520.287C1222.73 522.702 1216.34 523.909 1208.85 523.909Z" fill="#5534DA"/>
<rect x="7.50452" y="44.5" width="485" height="485" rx="42.5" fill="#AC99FF" stroke="#5534DA" stroke-width="15"/>
<path d="M50.0045 44.5H450.005C473.477 44.5 492.505 63.5279 492.505 87V437C492.505 460.472 473.477 479.5 450.005 479.5H50.0045C26.5324 479.5 7.50452 460.472 7.50452 437V87C7.50452 63.5279 26.5324 44.5 50.0045 44.5Z" fill="white" stroke="#5534DA" stroke-width="15"/>
<line y1="157" x2="500" y2="157" stroke="#5534DA" stroke-width="15"/>
<path d="M15.0045 52C198.941 52 302.068 52 486.005 52C486.005 90.2714 486.005 111.729 486.005 150H15.0045V105.24V52Z" fill="#AC99FF"/>
<path d="M50.0045 44.5H450.005C473.477 44.5 492.505 63.5279 492.505 87V437C492.505 460.472 473.477 479.5 450.005 479.5H50.0045C26.5324 479.5 7.50452 460.472 7.50452 437V87C7.50452 63.5279 26.5324 44.5 50.0045 44.5Z" stroke="#5534DA" stroke-width="15"/>
<rect x="70.0045" y="5" width="25" height="84" rx="12.5" fill="#D9D9D9" stroke="#5534DA" stroke-width="10"/>
<rect x="238.005" y="5" width="25" height="84" rx="12.5" fill="#D9D9D9" stroke="#5534DA" stroke-width="10"/>
<rect x="154.005" y="5" width="25" height="84" rx="12.5" fill="#D9D9D9" stroke="#5534DA" stroke-width="10"/>
<rect x="322.005" y="5" width="25" height="84" rx="12.5" fill="#D9D9D9" stroke="#5534DA" stroke-width="10"/>
<rect x="406.005" y="5" width="25" height="84" rx="12.5" fill="#D9D9D9" stroke="#5534DA" stroke-width="10"/>
<path d="M182.496 405.927L177.506 233.377C177.172 221.812 189.502 214.238 199.666 219.765L353.543 303.446C365.691 310.053 363.188 328.183 349.703 331.25L273.435 348.597C263.261 350.911 254.206 356.689 247.822 364.943L209.355 414.671C200.737 425.812 182.904 420.006 182.496 405.927Z" fill="#DAD1FF" stroke="#5534DA" stroke-width="30"/>
</svg>
