<svg xmlns="http://www.w3.org/2000/svg" width="100" height="100" fill="none"><path fill="#D9D9D9" d="M50 45.833 21.082 27.332c-.86-.55-1.738-.599-2.632-.145-.895.454-1.383 1.175-1.463 2.164a2.76 2.76 0 0 0 .177 1.498c.197.48.534.868 1.01 1.162l29.799 19.038c.644.39 1.32.585 2.03.585.709 0 1.383-.195 2.024-.584l29.8-19.04a2.556 2.556 0 0 0 1.03-1.16c.21-.482.263-.981.156-1.5-.08-.988-.568-1.702-1.462-2.143-.895-.44-1.772-.386-2.632.165L50 45.833ZM79.167 93.75c-5.203 0-9.629-1.825-13.277-5.473C62.24 84.63 60.417 80.203 60.417 75c0-5.203 1.824-9.629 5.473-13.277 3.648-3.649 8.074-5.473 13.277-5.473 5.203 0 9.629 1.824 13.277 5.473 3.649 3.648 5.473 8.074 5.473 13.277 0 5.203-1.824 9.629-5.473 13.277-3.648 3.649-8.074 5.473-13.277 5.473Zm-9.295-16.907h18.599a1.75 1.75 0 0 0 1.289-.553c.363-.369.545-.799.545-1.29 0-.492-.185-.922-.553-1.29-.369-.369-.799-.553-1.29-.553h-18.6a1.75 1.75 0 0 0-1.288.553c-.363.368-.545.798-.545 1.29 0 .491.184.921.553 1.29.369.368.799.553 1.29.553ZM17.95 81.25c-2.071 0-3.844-.738-5.32-2.213-1.474-1.475-2.212-3.248-2.212-5.32V26.283c0-2.071.738-3.844 2.213-5.32 1.475-1.474 3.248-2.212 5.32-2.212H82.05c2.072 0 3.845.738 5.32 2.213s2.213 3.248 2.213 5.32v23.83a25.459 25.459 0 0 0-5.08-1.647 25.806 25.806 0 0 0-5.337-.55c-7.545 0-13.945 2.628-19.2 7.884-5.256 5.255-7.883 11.655-7.883 19.2 0 1.042.064 2.083.192 3.125.128 1.041.347 2.083.657 3.125H17.949Z"/></svg>